<svg viewBox="0 0 512 512" xmlns="http://www.w3.org/2000/svg">
  <g fill="none" fill-rule="evenodd">
    <path fill="#FF6293" d="M0 0h512v512H0z"/>
    <g fill="#FFF" fill-rule="nonzero">
      <path d="M141.4393172 93.10636788c7.4644473 3.48338672 13.3115647 8.64623552 17.5413521 15.48859052 4.3540957 6.842399 6.5312537 14.4311987 6.5312537 22.7664211 0 9.7036933-2.985823 18.412105-8.9572487 26.1251689-5.8471174 7.5887556-13.3737188 12.627208-22.5798044 15.1153571l33.0298541 46.0925825h-8.2107376l-31.9101982-44.7862436-5.9716461.1763238H74.0732696v44.5995608h-6.90461934V88.80400123h49.45155034c5.4737517 0 10.1390589.37314523 13.995701 1.11965608 3.9809504.62198218 7.5887556 1.67948412 10.8234156 3.17235155v.01035902Zm-18.6610081 74.08394002c6.4690995 0 12.4407455-1.6177708 17.9144972-4.8519899 5.4737518-3.2344396 9.8280678-7.5887556 13.0627278-13.0625074 3.2344395-5.4739721 4.8517695-11.4453977 4.8517695-17.9144311 0-7.2155663-1.9285414-13.7469082-5.7849632-19.5940035-3.7321135-5.8471394-8.9572486-10.2013673-15.6751851-13.0627277-4.8517696-1.9904752-11.6942347-2.9857349-20.5269547-2.9857349h-42.546931v71.4713945h48.7050395Z"/>
      <path d="M62.06055 83.663788v140.163706h17.1329421v-44.5975771h41.7995386l3.3146668-.1291572 31.8553176 44.7267343h20.8350809l-35.9449279-50.1076956c7.3167762-3.1744895 14.5352518-6.5861345 19.5437291-13.0865315 6.6083958-8.5356144 10.0301788-18.5177451 10.0301788-29.2725046 0-9.1946466-2.449137-17.8237346-7.27512-25.441253l-.042978-.0430451c-4.0195217-6.4828307-10.1295819-11.0149693-16.7456914-14.80844344v-1.24839449l-2.9701743-1.37752962c-3.6633472-1.69068068-7.690803-2.8399812-12.0105155-3.52991416-.0121223-.00238037-.0306362.00238037-.0429789 0-4.2921619-.82744348-9.2470809-1.24839449-14.9374905-1.24839449H62.06055Zm17.1329421 17.1760753h37.4086353c8.4476729 0 14.7549954 1.049898 18.59665 2.6259241 5.8433705 2.5012852 10.1269366 6.0894303 13.3016465 11.0632821l.0431993.043045c3.3230423 5.0383422 4.9502905 10.4860641 4.9502905 16.7886478 0 5.614921-1.347775 10.6121577-4.1325889 15.3250722-2.8154502 4.7644893-6.5140621 8.4201223-11.278331 11.2353521-4.7126941 2.7848139-9.7099308 4.1325889-15.3251824 4.1325889H79.1934921v-61.2139122ZM293.5697221 88.81436017v6.90455313h-38.8148176V211.789868h38.8148176v6.90462h-84.16088882v-6.90462h38.62813482V95.7189133h-38.62813482v-6.90455313z"/>
      <path d="M204.290374 83.706855v17.1330082h38.6138085V206.651352H204.290374v17.176142h94.4039787v-17.176142h-38.8291439V100.8398632h38.8291439V83.706855h-5.1228673zM454.032969 219.165052H331.61709062L392.8250298 86.4858725 454.032969 219.165052Zm-111.5924628-6.904619H443.209553l-50.3845232-109.3529307-50.3845236 109.3529307Z"/>
      <path d="M392.8397969 74.236328 323.618823 224.300923H462.06055l-3.357645-7.27512-65.8631081-142.789475Zm0 40.8954163 42.3589261 91.9930377h-84.7610512l42.4021251-91.9930377ZM115.2492833 292.25434917c9.4549225 0 18.1633342 2.36384083 26.1254555 7.09130213 8.0864295 4.7274613 14.4933749 11.1341862 19.2208361 19.2206158 4.7274611 7.9621212 7.0910821 16.6705329 7.0910821 26.1254554v25.005579c0 9.4549226-2.363621 18.2254885-7.0910821 26.3119175-4.7274612 7.962122-11.1344066 14.306693-19.2208361 19.034154-7.9621213 4.727461-16.670533 7.091302-26.1254555 7.091302H67.29075464V292.25434917h47.95852866Zm45.5327541 52.43737333c0-8.2107378-2.0519682-15.7997138-6.1581085-22.7664872-4.1054791-6.9667734-9.7037595-12.5026793-16.7948412-16.6081584-6.9667734-4.1054791-14.555529-6.1581084-22.7662668-6.1581084h-40.867447V415.230056h40.867447c8.2107378 0 15.7994934-2.051969 22.7662668-6.158109 7.0910817-4.105479 12.6893621-9.641385 16.7948412-16.608158 4.1054791-6.9667737 6.1581085-14.5557497 6.1581085-22.7664875v-25.005579Z"/>
      <path d="M62.146508 287.150657v140.120771h53.1210689c10.3089909 0 19.9851998-2.652571 28.7127867-7.834728v.042979c8.7928267-5.140499 15.8523905-12.153117 21.0074374-20.83508l.042979-.043199c5.166507-8.837569 7.791748-18.5759323 7.791748-28.8849233V344.705608c0-10.3089909-2.652792-20.0281787-7.834727-28.755986-5.1479939-8.7846718-12.2157127-15.8673781-21.0074374-21.00721662-8.7275869-5.18215626-18.4037958-7.79174838-28.7127867-7.79174838H62.146508Zm17.1761414 17.1331625h35.729592c7.3568899 0 13.9813747 1.8086413 20.1895151 5.4671396 6.3745459 3.6904569 11.3067631 8.5309858 14.9806897 14.7653543 3.6582779 6.2081403 5.4239403 12.8326252 5.4239403 20.1892946v25.0108687c0 7.3566695-1.7656624 13.9381754-5.4239403 20.1463153-3.6739266 6.234149-8.6061438 11.074898-14.9806897 14.765355v.043199c-6.2081404 3.658278-12.8326252 5.42394-20.1895151 5.42394h-35.729592V304.2838195ZM209.90408295 292.25434917h91.43865335v6.90461933h-84.5340341v52.6238357h73.5241561v6.9046193h-73.5241561v56.5426325h84.5340341v6.904619h-91.43865335z"/>
      <path d="M204.764024 287.150657v140.120771h101.721857v-17.176142h-84.545936v-46.2763993h73.5256989v-17.1761414H221.939945v-42.3589258h84.545936V287.150657zM331.61709062 292.06788678H454.032969L392.8250298 424.747132l-61.20793918-132.67924522ZM392.8250298 408.325436l50.5712062-109.3531503H342.4405062l50.3845236 109.3531503Z"/>
      <path d="m323.618823 286.935542 3.35786622 7.27511967L392.8397969 437.000093 462.06055 286.935542H323.618823Zm26.8188488 17.1761414h84.9334072l-42.5312821 91.9929716-42.4021251-91.9929716Z"/>
    </g>
    <path fill="#FFF" d="M0 396h31v31H0z"/>
  </g>
</svg>
