<svg viewBox="0 0 33 31" xmlns="http://www.w3.org/2000/svg">
  <g fill="#000" fill-rule="nonzero">
    <path d="M11.638 11.98c2.314-1.842 5.594-1.842 7.908 0 .56-.495 1.027-1.084 1.382-1.741-3.124-2.483-7.548-2.483-10.671 0 .349.661.817 1.252 1.381 1.741Z"/>
    <path d="M24.99 11.524c.016-.097.03-.193.043-.29.702-5.214-2.956-10.009-8.17-10.711v.354c3.018.585 5.244 3.158 5.391 6.229.175 3.679-2.665 6.803-6.344 6.978v.987c.118.02.234.051.347.093.986.367 1.488 1.464 1.122 2.45l.854.494c1.662-2.586 4.876-3.701 7.782-2.699 3.481 1.2 5.331 4.995 4.131 8.477l.307.178c.037-.091.073-.182.107-.273 1.849-4.926-.645-10.418-5.57-12.267Z"/>
    <path d="M17.92 22.859c.148.731.425 1.432.816 2.066 3.713-1.463 5.925-5.294 5.336-9.241-.747-.028-1.492.082-2.199.326.438 2.925-1.201 5.765-3.953 6.849Z"/>
    <path d="M20.787 27.639c-3.273-1.688-4.559-5.709-2.871-8.982l-.854-.493c-.077.092-.162.177-.254.253-.812.671-2.012.557-2.683-.253l-.854.493c1.408 2.732.767 6.074-1.554 8.089-2.78 2.415-6.992 2.119-9.407-.661l-.307.177c.06.078.121.154.183.229 3.341 4.064 9.344 4.65 13.407 1.309.076.063.152.123.229.183 4.165 3.215 10.146 2.444 13.361-1.721l-.308-.177c-2.015 2.321-5.356 2.963-8.088 1.554ZM3.738 16.103c3.098-1.991 7.224-1.094 9.214 2.004l.855-.494c-.042-.112-.073-.229-.093-.347-.175-1.037.523-2.021 1.561-2.196v-.987c-3.07-.146-5.643-2.373-6.229-5.391-.701-3.615 1.661-7.114 5.276-7.815V.522c-.097.013-.193.028-.29.044-5.189.861-8.698 5.767-7.837 10.957-.091.034-.183.07-.273.107-4.866 2-7.19 7.565-5.19 12.432l.307-.178c-1.002-2.905.113-6.119 2.699-7.781Z"/>
    <path d="M7.114 15.684c-.589 3.947 1.623 7.778 5.336 9.241.398-.632.675-1.333.817-2.066-2.752-1.084-4.392-3.924-3.954-6.849-.709-.237-1.453-.347-2.199-.326Z"/>
  </g>
</svg>
