<svg viewBox="0 0 396 254" xmlns="http://www.w3.org/2000/svg">
  <g fill="#0A0B09" fill-rule="evenodd">
    <path d="M234.19 4.83 225.338.781l-46.184 131.708c2.746.984 5.401 2.235 7.888 3.736L234.19 4.83M227.869 68.106l-4.556-2.783-35.983 71.084c.193.119.384.243.576.366l39.963-68.667M205.342 47.099l-5.061-3.038L177.751 132c.079.025.155.056.233.081l27.358-84.982M183.959 76.299l3.933-5.737 6.799-7.4-3.747-12.121-5.133-.092-2.221 5.644-4.349-1.711-2.22 10.778 4.625 2.173 2.313 8.466M225.772 82.205l-2.876 4.038-1.661 8.408 5.808 5.034 4.149-5.034 1.159-5.697-2.54-6.804-1.993 2.102-2.046-2.047M201.842 138.692l-.687-1.604-5.546 6.042c.298.319.599.635.884.963l5.349-5.401M212.688 127.743l79.783-80.574-4.592-4.592-80.893 88.158 4.218-2.961 1.484-.031M172.395 168.422l20.592-20.79-1.494-.018-19.098 20.808M292.24 88.046 185.714 163.14 292.24 97.002v-8.956M259.172 137.189l-.461-5.281-62.663 29.624 63.124-24.343"/>
    <path d="m202.478 140.175 8.497-3.904 1.837 6.43 13.549-11.022 7.573-14.009-11.936 9.874-9.31.199-1.484.031-10.793 7.578 2.067 4.823M277.315 122.263l-2.068 5.511 19.06 2.297-12.629-12.631-4.363 4.823M329.673 99.069l12.861 8.726-.231-15.616-8.496-14.468-3.904 12.172-10.334.459-2.985 2.296-1.378 8.728 8.039 4.591 6.428-6.888M371.588 124.566l-2.606-5.501-187.596 48.643 190.202-43.142M394.463 145.413v-6.949L188.36 173.396l.022.017 206.081-28M252.875 182.765l.271-.075-.294-.014.023.089M263.298 179.869l2.115 2.277 16.262.515 6.527-7.425-22.877-10.134-6.078 5.791-8.688 2.895 2.052 7.952 3.548.112 7.139-1.983M267.063 183.923l12.74.868.709-.806-14.008-.663.559.601"/>
    <path d="m252.852 182.676.294.014 13.358.632 14.008.663 90.498 4.281-3.765-2.895-85.57-2.71-16.262-.515-9.254-.294-3.548-.112-57.123-1.809.018.031 57.346 2.714M229.329 196.511l1.018-1.413 9.586 4.149 33.79 8.708 1.446-9.845-73.87-10.346c-.175.465-.359.927-.55 1.383l28.58 7.364"/>
    <path d="m229.329 196.511-1.247 1.73-8.697-1.609-2.413 4.385 8.77 6.506 23.067 3.946.364-5.555-3.798-4.312-15.028-6.504-1.018 1.413M246.762 224.477l-2.7-5.481-45.654-25.109c-.136.237-.269.477-.409.712l48.763 29.878M248.135 238.538l2.496-2.498-54.095-39.176c-.202.294-.408.585-.617.873l52.216 40.801M172.809 179.688l5.967 4.661.245-.164-6.212-4.497M234.366 234.738l-2.491-5.646-38.464-28.23c-.151.17-.304.337-.456.504l41.411 33.372M115.483 221.499l3.892 4.326 4.325-1.947 2.162 2.162 4.325-2.595 1.73-5.837-4.108-2.595h-6.291l-5.153 4.723-.882 1.763M75.696 248.529l4.541 4.324 56.943-52.197c-.213-.243-.419-.492-.626-.74l-60.858 48.613M79.805 221.283l.216 2.812 52.082-30.659c-.061-.109-.117-.222-.176-.332l-52.122 28.179M98.833 200.309l-.433 3.244 33.243-10.984c-.156-.294-.31-.589-.459-.887l-32.351 8.627M88.67 209.174v-3.892l-11.461-.648 6.704 6.486 4.757-1.946M59.262 225.608l-6.487-4.109-2.379 7.785 6.609 9.087.311.428 2.163-6.055 4.108-.216 2.595-2.811 1.297-4.109-6.271-2.38-1.946 2.38M34.179 210.904l-.649 3.244 96.956-23.934c-.081-.179-.155-.363-.234-.544l-96.073 21.234M128.796 185.843.878 200.525l-.215 2.811 128.196-17.308c-.021-.062-.042-.123-.063-.185M48.45 188.415v2.596l18.596 1.73-11.893-9.298-6.703 4.972M94.509 175.441l-8.434-.431-1.004 1.656 10.502.693-1.064-1.918M102.726 177.171l-1.558.557 1.616.106-.058-.663M96.67 179.334l-.465-.839-11.952-.48-2.503 4.129 6.92 4.974 7.568 1.297 2.379-3.892h4.757l-.508-5.76-4.131-.166-2.065.737"/>
    <path d="m102.784 177.834-1.616-.106-5.595-.369-10.502-.693-51.324-3.386 2.595 2.811 47.911 1.924 11.952.48 2.53.102 4.131.166 24.6.988.107-.281-24.789-1.636M138.621 180.199l-10.779-.711 1.247.328 9.532.383M90.4 165.279l-3.244 2.811 51.248 8.001L90.4 165.279M140.351 173.928l-35.031-18.597.865 2.164 34.166 16.433M144.458 171.982l-6.574-4.953-.739.042 7.313 4.911M114.834 152.089l13.113 8.805c.095-.378.188-.757.293-1.131l-15.352-11.567 1.946 3.893"/>
    <path d="M130.252 189.67c.079.181.153.365.234.544.223.495.457.984.698 1.468.149.298.303.593.459.887.093.179.188.358.284.535.059.11.115.223.176.332 1.289 2.317 2.785 4.482 4.451 6.48.207.248.413.497.626.74 7.073 8.085 17.093 13.132 28.207 13.132 10.783 0 20.536-4.754 27.568-12.422.152-.167.305-.334.456-.504.882-.995 1.719-2.039 2.508-3.125.209-.288.415-.579.617-.873.509-.738 1-1.491 1.463-2.265.14-.235.273-.475.409-.712.869-1.519 1.654-3.1 2.341-4.74.191-.456.375-.918.55-1.383.446-1.175.849-2.373 1.197-3.599l-5.722-2.048-1.268-2.155-.018-.031-.96-1.632-6.146-4.886-.022-.017-2.591-2.06v8.31l-6.748 4.539-.245.164-5.362 3.607-16.846-14.375-11.904 10.333-15.575-4.098-1.247-.328-.25-.066-.019.048-.107.281-.134.351c.361 1.968.857 3.883 1.464 5.741.021.062.042.123.063.185.412 1.243.877 2.457 1.393 3.642"/>
    <path d="m127.803 161.449 5.405 5.844 3.937-.222.739-.042 11.271-.636 15.723 7.863 8.985-10.782-4.043-9.883 12.354 1.347 1.797-7.412 7.522.088 1.494.018 6.258.073c-.827-1.259-1.753-2.461-2.752-3.612-.285-.328-.586-.644-.884-.963-2.25-2.407-4.855-4.543-7.703-6.357-.192-.123-.383-.247-.576-.366-.098-.059-.191-.123-.288-.182-2.487-1.501-5.142-2.752-7.888-3.736-.389-.139-.778-.28-1.17-.408-.078-.025-.154-.056-.233-.081-4.033-1.293-8.231-1.994-12.364-1.994-17.521 0-32.329 12.538-37.147 29.757-.105.374-.198.753-.293 1.131-.047.186-.099.369-.144.555"/>
  </g>
</svg>
