<svg viewBox="0 0 184 255" xmlns="http://www.w3.org/2000/svg">
  <g fill="#0A0B09" fill-rule="evenodd">
    <path d="M111.109 148.06c0 9.994-2.832 25.536-2.832 25.536l18.582-10.286 7.625-7.625c0 12.165.006 21.885-16.875 36.5l12.92.742 14.705-7.123-9 15.631-11.25 10.875-16.875 8.125-29.375-5.125-10.341-6.165-11.504-11.505-6.223-14.237 7.443 6.657 21.625 3-9.625-12.875-6.714-14.038.093-12.163c6.412 9.901 11.41 13.861 25.178 19.519-2.075-10.468-2.432-16.383-2.432-21.568 0-10.749 12.709-28.596 9.596-36.233 10.904 11.733 15.279 22.363 15.279 32.358ZM86.291 18.492l-2.033 10.993.277 20.695-3.418 26.793-5.265 12.102-4.897-9.885-1.664-9.238-4.434-10.811-4.712-4.526-11.465-5.86 2.504 13.343-2.217 13.12-1.848 14.134v10.994l2.863 7.761-6.595-4.413-7.619-11.95-11.469-10.267 2.086 19.81-2.406 13.315 2.566 16.522 3.609 10.988 6.803 8.863-10.348-1.109-12.175-11.204L.559 123.345l1.291 8.321 8.894 35.79 4.973 20.774 8.502 13.714 17.449 11.3 20.695 6.19 23.559 1.755 21.711 1.016 29.471-2.494 13.675-7.18 11.453-7.787 10.995-15.06 6.345-20.142 2.617-35.289-.554-21.989-4.805 35.846-8.869 6.006-8.592.923 5.729-7.417 8.406-24.455-2.4-16.632-5.545-15.335-8.498 14.504-6.469 8.499-6.928 4.436 4.434-10.994V90.368l-1.727-18.254-11.67-23.043-1.662 25.961-4.896 15.798-8.223 4.343 1.57-10.809-2.308-12.75-20.147-43.971-6-26.983-6.744 17.832ZM24.037 253.054h144.945v-20.221H24.037z"/>
  </g>
</svg>
