<svg viewBox="0 0 141 237" xmlns="http://www.w3.org/2000/svg">
  <g fill="#0A0B09" fill-rule="evenodd">
    <path d="M52.11 218.496H14.877v16.678H125.75v-16.678H88.301c-5.672 1.966-11.756 3.047-18.096 3.047s-12.424-1.081-18.095-3.047M2.076 134.879l4.164 21.656 4.344 8.483 4.545 5.61c-.111-1.435-.186-2.882-.186-4.347 0-9.302 2.309-18.061 6.369-25.753l-.095-5.196-2.828-11.379-1.287-8.386 7.404 7.205 4.475 2.547 3.945.172c1.514-1.384 3.11-2.679 4.772-3.89l-1.962-4.839 4.11-13.928 1.935-14.166 4.076 18.111 4.253 8.023c2.18-.851 4.422-1.574 6.726-2.147l-.191-8.364 8.091-15.801.176-12.193 10.018 11.84 2.125 12.988 3.619 10.896c2.121.407 4.201.928 6.228 1.57l10.803-16.618 5.894 25.282c2.989 2.271 5.734 4.842 8.203 7.664l3.36-2.815 7.535-5.303-.09 19.352-.716 5.557c2.305 6.085 3.578 12.678 3.578 19.571 0 2.763-.209 5.477-.601 8.13l8.552-13.643 6.236-18.489v-22.56L133.5 94.272v4.15l-6.699 6.316-7.783 3.612 2.261-10.582 3.989-13.254-4.342-15.551-2.451 6.539-4.346 4.504-7.604 3.609 2.813-10.459V60.703l-11.5-22.56v4.693l-2.172 10.108-4.166 7.939-7.963 3.971V46.446l-4.344-14.438-5.974-14.258L68.902.221 64.35 19.926V33.27l-3.512 18.199-4.52 11.309-5.728-7.489-2.535-4.873-1.448-5.054-9.232-11.188 2.184 8.242-4.537 8.541-1.811 12.633 2.25 18.125-8.125-4.279-5.35-7.891-7.24-8.662 1.992 12.273.098 20.664 2.008 10.834-9.889-6.05-8.871-6.678 1.992 19.131v23.822"/>
    <path d="M70.205 203.272c-20.428 0-36.99-16.561-36.99-36.991 0-20.429 16.562-36.99 36.99-36.99 20.43 0 36.99 16.561 36.99 36.99 0 20.43-16.56 36.991-36.99 36.991Zm51.686-56.562c-2.354-6.211-5.794-11.882-10.089-16.791-2.469-2.822-5.214-5.393-8.203-7.664-4.974-3.779-10.606-6.735-16.697-8.664-2.027-.642-4.107-1.163-6.228-1.57-3.392-.651-6.889-1.003-10.469-1.003-4.611 0-9.087.573-13.369 1.637-2.304.573-4.546 1.296-6.726 2.147-4.446 1.738-8.612 4.03-12.412 6.799-1.662 1.211-3.258 2.506-4.772 3.89-4.687 4.286-8.624 9.372-11.614 15.037-4.06 7.692-6.369 16.451-6.369 25.753 0 1.465.075 2.912.186 4.347 1.735 22.27 16.662 40.827 36.981 47.868 5.671 1.966 11.755 3.047 18.095 3.047 6.34 0 12.424-1.081 18.096-3.047 19.16-6.639 33.533-23.51 36.567-44.085.392-2.653.601-5.367.601-8.13 0-6.893-1.273-13.486-3.578-19.571Z"/>
  </g>
</svg>
