<svg viewBox="0 0 92 87" xmlns="http://www.w3.org/2000/svg">
  <g transform="translate(.359369 .669545)" fill="#000" fill-rule="nonzero">
    <path d="M38.3474574 50.8057013 22.5489 78.1825482c14.3811885 8.3038491 30.7533905 8.3033001 45.1323833 0L51.8854706 50.8051523c-.1015543.0680689-.2042065.1355888-.3046629.2031087-.3710849.2014618-.7756554.4040214-1.1807747.5730956-.4051194.1690742-.8096898.3370506-1.2488436.4726393-.4386049.1350398-.8437242.2354962-1.2834269.3370505-.4397028.1010054-.8777587.1690742-1.349849.2025597-.4386048.0340344-.9112441.066971-1.3844323.0675199-.4709924-.0005489-.9106952-.0334855-1.3833344-.0675199-.4391538-.0334855-.9112441-.1015543-1.3503979-.2025597-.4386048-.1015543-.8772097-.2020107-1.282878-.3370505-.4380559-.1355887-.8442731-.2695306-1.2482946-.4720903-.4045704-.1701721-.8107877-.3716339-1.1813237-.5736446-.1366866-.0680689-.2382409-.1361377-.3397952-.2025597ZM22.5489 0C8.16826038 8.304947 0 22.481929 0 39.0907251h31.5954679c0-.4720903.0340345-.9452785.0686178-1.3849812.0334855-.4386048.1350398-.911793.2020108-1.3498489.1015543-.4386049.2031086-.8772097.3386973-1.282878.1339419-.4391538.2689817-.8437242.4715414-1.2488436.1690742-.4051194.3721828-.8102387.5741936-1.1807748.2020107-.3710849.4386048-.7432677.674101-1.1143527.2365941-.3710849.5077716-.7092333.7767533-1.0462839.2695306-.3381484.5736446-.6417134.8777586-.9452785.304114-.3046629.6411645-.608228.978215-.8777586.3381485-.2706285.675199-.5401592 1.0468329-.7762043.2700796-.1690742.5401591-.3381484.8107877-.5061248L22.5489 0ZM67.6818322 0 51.8860196 27.3768469c.2695306.1690742.5390612.304114.8085919.5061247.3710849.2360452.7092333.5061248 1.0468328.7756554.3381484.2706285.6406156.5741936.978764.8777586.304663.304663.6076791.6417135.8788565.9452785.2695307.3375995.5390613.6741011.7756554 1.0473818.2365941.370536.4726393.7421699.6757479 1.1138038.2031086.371085.4045704.7756554.5741936 1.1807747.1679763.4062173.3370505.8102388.4726392 1.2482947.1339419.4397027.2354962.8442731.3370505 1.2834269.1004565.4386049.1690742.8783076.2020108 1.3503979.0329365.4386048.0675199.9112441.0675199 1.3838834l31.5965658.0005489C90.2334769 22.481929 82.0635697 8.30439806 67.6818322 0Z"/>
    <circle cx="45.0994468" cy="39.0912741" r="9.01363142"/>
  </g>
</svg>
