<svg viewBox="0 0 33 33" xmlns="http://www.w3.org/2000/svg">
  <g fill="none" fill-rule="evenodd">
    <path fill="#E7E6E6" d="M0 0h33v33H0z"/>
    <g stroke-linejoin="square">
      <path stroke="#FFF" stroke-width="2" fill="#F43028" d="m16.727922 5.41421359 11.3137085 11.3137085-11.3137085 11.3137085-11.3137085-11.3137085z"/>
      <path stroke="#000" d="m16.727922 4.7071068 12.02081528 12.02081528L16.727922 28.74873737 4.70710672 16.72792208z"/>
    </g>
    <path fill="#000" d="M10.72792206 10.72792206H22.7279221l1 1H9.72792206zM9.72792206 21.7279221H23.7279221l-1 1H10.72792206z"/>
    <path fill="#FFF" d="M9.72792206 12.72792206h14v8h-14z"/>
    <g fill="#000" fill-rule="nonzero">
      <path d="M12.842922 14.671922v4.056h-.93v-3.132l-.87.534-.414-.63 1.368-.828zM14.762922 14.587922c.292 0 .543.052.753.156.21.104.37.244.48.42.11.176.165.37.165.582 0 .216-.044.422-.132.618-.088.196-.244.421-.468.675-.224.254-.55.575-.978.963h1.662l-.096.726h-2.64v-.672c.492-.484.85-.849 1.074-1.095.224-.246.381-.451.471-.615.09-.164.135-.332.135-.504 0-.164-.047-.293-.141-.387-.094-.094-.221-.141-.381-.141-.144 0-.272.033-.384.099-.112.066-.23.173-.354.321l-.558-.444c.168-.22.369-.392.603-.516.234-.124.497-.186.789-.186ZM17.840922 14.587922c.284 0 .527.046.729.138.202.092.356.216.462.372.106.156.159.33.159.522 0 .244-.069.448-.207.612-.138.164-.333.282-.585.354.272.028.494.125.666.291.172.166.258.401.258.705 0 .228-.06.437-.18.627s-.297.341-.531.453c-.234.112-.513.168-.837.168-.592 0-1.056-.204-1.392-.612l.51-.498c.136.136.269.235.399.297s.273.093.429.093c.188 0 .34-.052.456-.156.116-.104.174-.248.174-.432 0-.208-.055-.357-.165-.447-.11-.09-.275-.135-.495-.135h-.336l.102-.654h.234c.18 0 .322-.046.426-.138.104-.092.156-.222.156-.39 0-.148-.048-.263-.144-.345-.096-.082-.228-.123-.396-.123-.284 0-.548.118-.792.354l-.468-.51c.384-.364.84-.546 1.368-.546ZM22.778922 17.143922v.708h-.456v.876h-.924l-.006-.876h-1.71v-.63l1.152-2.652.804.3-.978 2.274h.744l.102-.96h.816v.96z"/>
    </g>
  </g>
</svg>
